<svg xmlns="http://www.w3.org/2000/svg" width="1200" height="514" viewBox="0 0 1200 514" font-family="sans-serif">
<rect width="1200" height="514" fill="#ffffff"/>
<text x="600" y="30" font-size="20" font-weight="700" text-anchor="middle" fill="#33373b">LucentTools DB Explorer — Arbeitspaket-Roadmap</text>
<line x1="210.0" y1="70" x2="210.0" y2="470" stroke="#9aa0a6" stroke-width="0.5" stroke-dasharray="2 3"/>
<text x="210.0" y="64" font-size="10" text-anchor="middle" fill="#9aa0a6">25.06</text>
<line x1="335.2" y1="70" x2="335.2" y2="470" stroke="#9aa0a6" stroke-width="0.5" stroke-dasharray="2 3"/>
<text x="335.2" y="64" font-size="10" text-anchor="middle" fill="#9aa0a6">28.06</text>
<line x1="460.4" y1="70" x2="460.4" y2="470" stroke="#9aa0a6" stroke-width="0.5" stroke-dasharray="2 3"/>
<text x="460.4" y="64" font-size="10" text-anchor="middle" fill="#9aa0a6">01.07</text>
<line x1="585.7" y1="70" x2="585.7" y2="470" stroke="#9aa0a6" stroke-width="0.5" stroke-dasharray="2 3"/>
<text x="585.7" y="64" font-size="10" text-anchor="middle" fill="#9aa0a6">04.07</text>
<line x1="710.9" y1="70" x2="710.9" y2="470" stroke="#9aa0a6" stroke-width="0.5" stroke-dasharray="2 3"/>
<text x="710.9" y="64" font-size="10" text-anchor="middle" fill="#9aa0a6">07.07</text>
<line x1="836.1" y1="70" x2="836.1" y2="470" stroke="#9aa0a6" stroke-width="0.5" stroke-dasharray="2 3"/>
<text x="836.1" y="64" font-size="10" text-anchor="middle" fill="#9aa0a6">10.07</text>
<line x1="961.3" y1="70" x2="961.3" y2="470" stroke="#9aa0a6" stroke-width="0.5" stroke-dasharray="2 3"/>
<text x="961.3" y="64" font-size="10" text-anchor="middle" fill="#9aa0a6">13.07</text>
<line x1="1086.5" y1="70" x2="1086.5" y2="470" stroke="#9aa0a6" stroke-width="0.5" stroke-dasharray="2 3"/>
<text x="1086.5" y="64" font-size="10" text-anchor="middle" fill="#9aa0a6">16.07</text>
<line x1="1170.0" y1="70" x2="1170.0" y2="470" stroke="#9aa0a6" stroke-width="0.5" stroke-dasharray="2 3"/>
<text x="1170.0" y="64" font-size="10" text-anchor="middle" fill="#9aa0a6">18.07</text>
<rect x="0" y="70" width="1200" height="40" fill="#f7f7fa"/>
<text x="198" y="94" font-size="12" text-anchor="end" fill="#33373b">⚙️ Engine / Fundament</text>
<rect x="251.7" y="79" width="41.7" height="22" rx="3" fill="#1f6f3c"/>
<text x="272.6" y="94.0" font-size="12" font-weight="700" text-anchor="middle" fill="#ffffff">3</text>
<rect x="0" y="110" width="1200" height="40" fill="#ffffff"/>
<text x="198" y="134" font-size="12" text-anchor="end" fill="#33373b">🔌 Verbindungen &amp; Backends</text>
<rect x="210.0" y="119" width="292.2" height="22" rx="3" fill="#1f6f3c"/>
<text x="356.1" y="134.0" font-size="12" font-weight="700" text-anchor="middle" fill="#ffffff">6</text>
<text x="585.7" y="134.0" font-size="13" text-anchor="middle">🚧</text>
<text x="597.7" y="134.0" font-size="10" text-anchor="start" paint-order="stroke" stroke="#ffffff" stroke-width="2.5" stroke-linejoin="round" fill="#234a78">AP-71 DB-Adressierungs-Matrix</text>
<text x="627.4" y="121.0" font-size="13" text-anchor="middle">🚧</text>
<text x="639.4" y="121.0" font-size="10" text-anchor="start" paint-order="stroke" stroke="#ffffff" stroke-width="2.5" stroke-linejoin="round" fill="#234a78">AP-71·S1 Erweiterte-Parameter-Feld</text>
<text x="710.9" y="147.0" font-size="13" text-anchor="middle">🚧</text>
<text x="722.9" y="147.0" font-size="10" text-anchor="start" paint-order="stroke" stroke="#ffffff" stroke-width="2.5" stroke-linejoin="round" fill="#234a78">AP-71·S2 Oracle TNS-Alias/TNS_ADMIN</text>
<text x="752.6" y="147.0" font-size="13" text-anchor="middle">🚧</text>
<text x="764.6" y="147.0" font-size="10" text-anchor="start" paint-order="stroke" stroke="#ffffff" stroke-width="2.5" stroke-linejoin="round" fill="#234a78">AP-71·S3 Oracle Wallet/mTLS</text>
<text x="794.3" y="134.0" font-size="13" text-anchor="middle">🚧</text>
<text x="806.3" y="134.0" font-size="10" text-anchor="start" paint-order="stroke" stroke="#ffffff" stroke-width="2.5" stroke-linejoin="round" fill="#234a78">AP-71·S4 MSSQL Named Instance+Win-Auth</text>
<rect x="0" y="150" width="1200" height="40" fill="#f7f7fa"/>
<text x="198" y="174" font-size="12" text-anchor="end" fill="#33373b">🧩 SQL-Builder &amp; SQL-Ausgabe</text>
<rect x="210.0" y="159" width="250.4" height="22" rx="3" fill="#1f6f3c"/>
<text x="335.2" y="174.0" font-size="12" font-weight="700" text-anchor="middle" fill="#ffffff">37</text>
<rect x="0" y="190" width="1200" height="40" fill="#ffffff"/>
<text x="198" y="214" font-size="12" text-anchor="end" fill="#33373b">🕸️ Graph-Visualisierung</text>
<rect x="210.0" y="199" width="41.7" height="22" rx="3" fill="#1f6f3c"/>
<text x="230.9" y="214.0" font-size="12" font-weight="700" text-anchor="middle" fill="#ffffff">8</text>
<rect x="0" y="230" width="1200" height="40" fill="#f7f7fa"/>
<text x="198" y="254" font-size="12" text-anchor="end" fill="#33373b">🗂️ Daten &amp; UI-Rahmen</text>
<rect x="251.7" y="239" width="6.0" height="22" rx="3" fill="#1f6f3c"/>
<text x="256.7" y="254.0" font-size="11" font-weight="700" fill="#1f6f3c">1</text>
<rect x="0" y="270" width="1200" height="40" fill="#ffffff"/>
<text x="198" y="294" font-size="12" text-anchor="end" fill="#33373b">🚀 Deployment &amp; Betrieb</text>
<rect x="251.7" y="279" width="6.0" height="22" rx="3" fill="#1f6f3c"/>
<text x="256.7" y="294.0" font-size="11" font-weight="700" fill="#1f6f3c">3</text>
<text x="335.2" y="294.0" font-size="13" text-anchor="middle">🚧</text>
<text x="347.2" y="294.0" font-size="10" text-anchor="start" paint-order="stroke" stroke="#ffffff" stroke-width="2.5" stroke-linejoin="round" fill="#234a78">AP-35 run.ps1 leeres-venv-Fix</text>
<text x="377.0" y="281.0" font-size="13" text-anchor="middle">🚧</text>
<text x="389.0" y="281.0" font-size="10" text-anchor="start" paint-order="stroke" stroke="#ffffff" stroke-width="2.5" stroke-linejoin="round" fill="#234a78">AP-31 Idle-Shutdown/Deploy (Rest)</text>
<text x="377.0" y="307.0" font-size="13" text-anchor="middle">🚧</text>
<text x="389.0" y="307.0" font-size="10" text-anchor="start" paint-order="stroke" stroke="#ffffff" stroke-width="2.5" stroke-linejoin="round" fill="#234a78">AP-34 Log-Fenster/Verknüpfung</text>
<text x="543.9" y="294.0" font-size="13" text-anchor="middle">🚧</text>
<text x="555.9" y="294.0" font-size="10" text-anchor="start" paint-order="stroke" stroke="#ffffff" stroke-width="2.5" stroke-linejoin="round" fill="#234a78">AP-72·S1 Mojibake→UTF-8 (ohne BOM)</text>
<text x="627.4" y="281.0" font-size="13" text-anchor="middle">🚧</text>
<text x="639.4" y="281.0" font-size="10" text-anchor="start" paint-order="stroke" stroke="#ffffff" stroke-width="2.5" stroke-linejoin="round" fill="#234a78">AP-72·S2 Laufzeit-UTF-8</text>
<rect x="0" y="310" width="1200" height="40" fill="#f7f7fa"/>
<text x="198" y="334" font-size="12" text-anchor="end" fill="#33373b">📚 Doku &amp; Prozess</text>
<rect x="251.7" y="319" width="208.7" height="22" rx="3" fill="#1f6f3c"/>
<text x="356.1" y="334.0" font-size="12" font-weight="700" text-anchor="middle" fill="#ffffff">3</text>
<text x="418.7" y="334.0" font-size="13" text-anchor="middle">🚧</text>
<text x="430.7" y="334.0" font-size="10" text-anchor="start" paint-order="stroke" stroke="#ffffff" stroke-width="2.5" stroke-linejoin="round" fill="#234a78">AP-19 .pattern_transfer</text>
<text x="1003.0" y="334.0" font-size="13" text-anchor="middle">🚧</text>
<text x="991.0" y="334.0" font-size="10" text-anchor="end" paint-order="stroke" stroke="#ffffff" stroke-width="2.5" stroke-linejoin="round" fill="#234a78">AP-73·S1 Docstring/Synopsis-Standard</text>
<text x="1044.8" y="321.0" font-size="13" text-anchor="middle">🚧</text>
<text x="1032.8" y="321.0" font-size="10" text-anchor="end" paint-order="stroke" stroke="#ffffff" stroke-width="2.5" stroke-linejoin="round" fill="#234a78">AP-73·S2 API-Doku je Sprache</text>
<text x="1086.5" y="347.0" font-size="13" text-anchor="middle">🚧</text>
<text x="1074.5" y="347.0" font-size="10" text-anchor="end" paint-order="stroke" stroke="#ffffff" stroke-width="2.5" stroke-linejoin="round" fill="#234a78">AP-73·S3 API-Doku in Site</text>
<text x="1128.3" y="347.0" font-size="13" text-anchor="middle">🚧</text>
<text x="1116.3" y="347.0" font-size="10" text-anchor="end" paint-order="stroke" stroke="#ffffff" stroke-width="2.5" stroke-linejoin="round" fill="#234a78">AP-73·S4 Doku-Packaging AppImage/Win-Zip</text>
<text x="1170.0" y="347.0" font-size="13" text-anchor="middle">🚧</text>
<text x="1158.0" y="347.0" font-size="10" text-anchor="end" paint-order="stroke" stroke="#ffffff" stroke-width="2.5" stroke-linejoin="round" fill="#234a78">AP-73·S5 Screenshots erneuern</text>
<rect x="0" y="350" width="1200" height="40" fill="#ffffff"/>
<text x="198" y="374" font-size="12" text-anchor="end" fill="#33373b">🧬 Legacy-DB-Migration / Export</text>
<rect x="335.2" y="359" width="41.7" height="22" rx="3" fill="#1f6f3c"/>
<text x="356.1" y="374.0" font-size="12" font-weight="700" text-anchor="middle" fill="#ffffff">6</text>
<text x="585.7" y="374.0" font-size="13" text-anchor="middle">🚧</text>
<text x="597.7" y="374.0" font-size="10" text-anchor="start" paint-order="stroke" stroke="#ffffff" stroke-width="2.5" stroke-linejoin="round" fill="#234a78">AP-57 Cross-Schema-Joins</text>
<rect x="0" y="390" width="1200" height="40" fill="#f7f7fa"/>
<text x="198" y="414" font-size="12" text-anchor="end" fill="#33373b">🗃️ DB-Objekt-Kategorien</text>
<rect x="377.0" y="399" width="83.5" height="22" rx="3" fill="#1f6f3c"/>
<text x="418.7" y="414.0" font-size="12" font-weight="700" text-anchor="middle" fill="#ffffff">9</text>
<text x="836.1" y="414.0" font-size="13" text-anchor="middle">🚧</text>
<text x="848.1" y="414.0" font-size="10" text-anchor="start" paint-order="stroke" stroke="#ffffff" stroke-width="2.5" stroke-linejoin="round" fill="#234a78">AP-66·S2/S3 Views→Routinen (Rest)</text>
<text x="836.1" y="401.0" font-size="13" text-anchor="middle">🚧</text>
<text x="848.1" y="401.0" font-size="10" text-anchor="start" paint-order="stroke" stroke="#ffffff" stroke-width="2.5" stroke-linejoin="round" fill="#234a78">AP-74 Routinen-Metadaten</text>
<rect x="0" y="430" width="1200" height="40" fill="#ffffff"/>
<text x="198" y="454" font-size="12" text-anchor="end" fill="#33373b">🔧 Verbindungs-UX &amp; Demo-Daten</text>
<rect x="335.2" y="439" width="41.7" height="22" rx="3" fill="#1f6f3c"/>
<text x="356.1" y="454.0" font-size="12" font-weight="700" text-anchor="middle" fill="#ffffff">2</text>
<text x="877.8" y="454.0" font-size="13" text-anchor="middle">🚧</text>
<text x="889.8" y="454.0" font-size="10" text-anchor="start" paint-order="stroke" stroke="#ffffff" stroke-width="2.5" stroke-linejoin="round" fill="#234a78">AP-61 Demo-CMDB → volle CMDB</text>
<text x="919.6" y="441.0" font-size="13" text-anchor="middle">🚧</text>
<text x="931.6" y="441.0" font-size="10" text-anchor="start" paint-order="stroke" stroke="#ffffff" stroke-width="2.5" stroke-linejoin="round" fill="#234a78">AP-62 Passwort-Keyring</text>
<rect x="210" y="483" width="22" height="12" rx="3" fill="#1f6f3c"/>
<text x="238" y="493" font-size="11" fill="#33373b">erledigt (Zeitraum · Zahl = Anzahl APs)</text>
<text x="500" y="496" font-size="14" text-anchor="middle">🚧</text>
<text x="512" y="493" font-size="11" fill="#33373b">in Arbeit / geplant</text>
</svg>