<svg xmlns="http://www.w3.org/2000/svg" width="1200" height="514" viewBox="0 0 1200 514" font-family="sans-serif">
<rect width="1200" height="514" fill="#ffffff"/>
<text x="600" y="30" font-size="20" font-weight="700" text-anchor="middle" fill="#33373b">LucentTools DB Explorer — Arbeitspaket-Roadmap</text>
<line x1="210.0" y1="70" x2="210.0" y2="470" stroke="#9aa0a6" stroke-width="0.5" stroke-dasharray="2 3"/>
<text x="210.0" y="64" font-size="10" text-anchor="middle" fill="#9aa0a6">25.06</text>
<line x1="379.4" y1="70" x2="379.4" y2="470" stroke="#9aa0a6" stroke-width="0.5" stroke-dasharray="2 3"/>
<text x="379.4" y="64" font-size="10" text-anchor="middle" fill="#9aa0a6">28.06</text>
<line x1="548.8" y1="70" x2="548.8" y2="470" stroke="#9aa0a6" stroke-width="0.5" stroke-dasharray="2 3"/>
<text x="548.8" y="64" font-size="10" text-anchor="middle" fill="#9aa0a6">01.07</text>
<line x1="718.2" y1="70" x2="718.2" y2="470" stroke="#9aa0a6" stroke-width="0.5" stroke-dasharray="2 3"/>
<text x="718.2" y="64" font-size="10" text-anchor="middle" fill="#9aa0a6">04.07</text>
<line x1="887.6" y1="70" x2="887.6" y2="470" stroke="#9aa0a6" stroke-width="0.5" stroke-dasharray="2 3"/>
<text x="887.6" y="64" font-size="10" text-anchor="middle" fill="#9aa0a6">07.07</text>
<line x1="1057.1" y1="70" x2="1057.1" y2="470" stroke="#9aa0a6" stroke-width="0.5" stroke-dasharray="2 3"/>
<text x="1057.1" y="64" font-size="10" text-anchor="middle" fill="#9aa0a6">10.07</text>
<line x1="1170.0" y1="70" x2="1170.0" y2="470" stroke="#9aa0a6" stroke-width="0.5" stroke-dasharray="2 3"/>
<text x="1170.0" y="64" font-size="10" text-anchor="middle" fill="#9aa0a6">12.07</text>
<rect x="0" y="70" width="1200" height="40" fill="#f7f7fa"/>
<text x="198" y="94" font-size="12" text-anchor="end" fill="#33373b">⚙️ Engine / Fundament</text>
<rect x="266.5" y="79" width="56.5" height="22" rx="3" fill="#1f6f3c"/>
<text x="294.7" y="94.0" font-size="12" font-weight="700" text-anchor="middle" fill="#ffffff">3</text>
<rect x="0" y="110" width="1200" height="40" fill="#ffffff"/>
<text x="198" y="134" font-size="12" text-anchor="end" fill="#33373b">🔌 Verbindungen &amp; Backends</text>
<rect x="210.0" y="119" width="169.4" height="22" rx="3" fill="#1f6f3c"/>
<text x="294.7" y="134.0" font-size="12" font-weight="700" text-anchor="middle" fill="#ffffff">5</text>
<rect x="0" y="150" width="1200" height="40" fill="#f7f7fa"/>
<text x="198" y="174" font-size="12" text-anchor="end" fill="#33373b">🧩 SQL-Builder &amp; SQL-Ausgabe</text>
<rect x="210.0" y="159" width="338.8" height="22" rx="3" fill="#1f6f3c"/>
<text x="379.4" y="174.0" font-size="12" font-weight="700" text-anchor="middle" fill="#ffffff">36</text>
<rect x="0" y="190" width="1200" height="40" fill="#ffffff"/>
<text x="198" y="214" font-size="12" text-anchor="end" fill="#33373b">🕸️ Graph-Visualisierung</text>
<rect x="210.0" y="199" width="56.5" height="22" rx="3" fill="#1f6f3c"/>
<text x="238.2" y="214.0" font-size="12" font-weight="700" text-anchor="middle" fill="#ffffff">8</text>
<rect x="0" y="230" width="1200" height="40" fill="#f7f7fa"/>
<text x="198" y="254" font-size="12" text-anchor="end" fill="#33373b">🗂️ Daten &amp; UI-Rahmen</text>
<rect x="266.5" y="239" width="6.0" height="22" rx="3" fill="#1f6f3c"/>
<text x="271.5" y="254.0" font-size="11" font-weight="700" fill="#1f6f3c">1</text>
<rect x="0" y="270" width="1200" height="40" fill="#ffffff"/>
<text x="198" y="294" font-size="12" text-anchor="end" fill="#33373b">🚀 Deployment &amp; Betrieb</text>
<rect x="266.5" y="279" width="6.0" height="22" rx="3" fill="#1f6f3c"/>
<text x="271.5" y="294.0" font-size="11" font-weight="700" fill="#1f6f3c">3</text>
<text x="379.4" y="294.0" font-size="13" text-anchor="middle">🚧</text>
<text x="391.4" y="294.0" font-size="10" text-anchor="start" paint-order="stroke" stroke="#ffffff" stroke-width="2.5" stroke-linejoin="round" fill="#234a78">AP-35 run.ps1 leeres-venv-Fix</text>
<text x="435.9" y="281.0" font-size="13" text-anchor="middle">🚧</text>
<text x="447.9" y="281.0" font-size="10" text-anchor="start" paint-order="stroke" stroke="#ffffff" stroke-width="2.5" stroke-linejoin="round" fill="#234a78">AP-31 Idle-Shutdown/Deploy (Rest)</text>
<text x="435.9" y="307.0" font-size="13" text-anchor="middle">🚧</text>
<text x="447.9" y="307.0" font-size="10" text-anchor="start" paint-order="stroke" stroke="#ffffff" stroke-width="2.5" stroke-linejoin="round" fill="#234a78">AP-34 Log-Fenster/Verknüpfung</text>
<rect x="0" y="310" width="1200" height="40" fill="#f7f7fa"/>
<text x="198" y="334" font-size="12" text-anchor="end" fill="#33373b">📚 Doku &amp; Prozess</text>
<rect x="266.5" y="319" width="282.4" height="22" rx="3" fill="#1f6f3c"/>
<text x="407.6" y="334.0" font-size="12" font-weight="700" text-anchor="middle" fill="#ffffff">3</text>
<text x="492.4" y="334.0" font-size="13" text-anchor="middle">🚧</text>
<text x="504.4" y="334.0" font-size="10" text-anchor="start" paint-order="stroke" stroke="#ffffff" stroke-width="2.5" stroke-linejoin="round" fill="#234a78">AP-19 .pattern_transfer</text>
<rect x="0" y="350" width="1200" height="40" fill="#ffffff"/>
<text x="198" y="374" font-size="12" text-anchor="end" fill="#33373b">🧬 Legacy-DB-Migration / Export</text>
<rect x="379.4" y="359" width="56.5" height="22" rx="3" fill="#1f6f3c"/>
<text x="407.6" y="374.0" font-size="12" font-weight="700" text-anchor="middle" fill="#ffffff">6</text>
<text x="718.2" y="374.0" font-size="13" text-anchor="middle">🚧</text>
<text x="730.2" y="374.0" font-size="10" text-anchor="start" paint-order="stroke" stroke="#ffffff" stroke-width="2.5" stroke-linejoin="round" fill="#234a78">AP-57 Cross-Schema-Joins</text>
<rect x="0" y="390" width="1200" height="40" fill="#f7f7fa"/>
<text x="198" y="414" font-size="12" text-anchor="end" fill="#33373b">🗃️ DB-Objekt-Kategorien</text>
<rect x="435.9" y="399" width="112.9" height="22" rx="3" fill="#1f6f3c"/>
<text x="492.4" y="414.0" font-size="12" font-weight="700" text-anchor="middle" fill="#ffffff">9</text>
<text x="1057.1" y="414.0" font-size="13" text-anchor="middle">🚧</text>
<text x="1045.1" y="414.0" font-size="10" text-anchor="end" paint-order="stroke" stroke="#ffffff" stroke-width="2.5" stroke-linejoin="round" fill="#234a78">AP-66·S2/S3 Views→Routinen (Rest)</text>
<rect x="0" y="430" width="1200" height="40" fill="#ffffff"/>
<text x="198" y="454" font-size="12" text-anchor="end" fill="#33373b">🔧 Verbindungs-UX &amp; Demo-Daten</text>
<rect x="379.4" y="439" width="56.5" height="22" rx="3" fill="#1f6f3c"/>
<text x="407.6" y="454.0" font-size="12" font-weight="700" text-anchor="middle" fill="#ffffff">2</text>
<text x="1113.5" y="454.0" font-size="13" text-anchor="middle">🚧</text>
<text x="1101.5" y="454.0" font-size="10" text-anchor="end" paint-order="stroke" stroke="#ffffff" stroke-width="2.5" stroke-linejoin="round" fill="#234a78">AP-61 Demo-CMDB → volle CMDB</text>
<text x="1170.0" y="441.0" font-size="13" text-anchor="middle">🚧</text>
<text x="1158.0" y="441.0" font-size="10" text-anchor="end" paint-order="stroke" stroke="#ffffff" stroke-width="2.5" stroke-linejoin="round" fill="#234a78">AP-62 Passwort-Keyring</text>
<rect x="210" y="483" width="22" height="12" rx="3" fill="#1f6f3c"/>
<text x="238" y="493" font-size="11" fill="#33373b">erledigt (Zeitraum · Zahl = Anzahl APs)</text>
<text x="500" y="496" font-size="14" text-anchor="middle">🚧</text>
<text x="512" y="493" font-size="11" fill="#33373b">in Arbeit / geplant</text>
</svg>