<svg xmlns="http://www.w3.org/2000/svg" width="1200" height="454" viewBox="0 0 1200 454" font-family="sans-serif">
<rect width="1200" height="454" fill="#ffffff"/>
<text x="210" y="30" font-size="20" font-weight="700" fill="#33373b">LucentTools DB Explorer — Arbeitspaket-Roadmap</text>
<line x1="210.0" y1="70" x2="210.0" y2="410" stroke="#9aa0a6" stroke-width="0.5" stroke-dasharray="2 3"/>
<text x="210.0" y="64" font-size="10" text-anchor="middle" fill="#9aa0a6">25.06</text>
<line x1="379.4" y1="70" x2="379.4" y2="410" stroke="#9aa0a6" stroke-width="0.5" stroke-dasharray="2 3"/>
<text x="379.4" y="64" font-size="10" text-anchor="middle" fill="#9aa0a6">28.06</text>
<line x1="548.8" y1="70" x2="548.8" y2="410" stroke="#9aa0a6" stroke-width="0.5" stroke-dasharray="2 3"/>
<text x="548.8" y="64" font-size="10" text-anchor="middle" fill="#9aa0a6">01.07</text>
<line x1="718.2" y1="70" x2="718.2" y2="410" stroke="#9aa0a6" stroke-width="0.5" stroke-dasharray="2 3"/>
<text x="718.2" y="64" font-size="10" text-anchor="middle" fill="#9aa0a6">04.07</text>
<line x1="887.6" y1="70" x2="887.6" y2="410" stroke="#9aa0a6" stroke-width="0.5" stroke-dasharray="2 3"/>
<text x="887.6" y="64" font-size="10" text-anchor="middle" fill="#9aa0a6">07.07</text>
<line x1="1057.1" y1="70" x2="1057.1" y2="410" stroke="#9aa0a6" stroke-width="0.5" stroke-dasharray="2 3"/>
<text x="1057.1" y="64" font-size="10" text-anchor="middle" fill="#9aa0a6">10.07</text>
<line x1="1170.0" y1="70" x2="1170.0" y2="410" stroke="#9aa0a6" stroke-width="0.5" stroke-dasharray="2 3"/>
<text x="1170.0" y="64" font-size="10" text-anchor="middle" fill="#9aa0a6">12.07</text>
<rect x="0" y="70" width="1200" height="34" fill="#f7f7fa"/>
<text x="198" y="91" font-size="12" text-anchor="end" fill="#33373b">⚙️ Engine / Fundament</text>
<rect x="266.5" y="78" width="56.5" height="18" rx="3" fill="#1f6f3c"/>
<rect x="0" y="104" width="1200" height="34" fill="#ffffff"/>
<text x="198" y="125" font-size="12" text-anchor="end" fill="#33373b">🔌 Verbindungen &amp; Backends</text>
<rect x="210.0" y="112" width="169.4" height="18" rx="3" fill="#1f6f3c"/>
<rect x="0" y="138" width="1200" height="34" fill="#f7f7fa"/>
<text x="198" y="159" font-size="12" text-anchor="end" fill="#33373b">🧩 SQL-Builder &amp; SQL-Ausgabe</text>
<rect x="210.0" y="146" width="338.8" height="18" rx="3" fill="#1f6f3c"/>
<rect x="0" y="172" width="1200" height="34" fill="#ffffff"/>
<text x="198" y="193" font-size="12" text-anchor="end" fill="#33373b">🕸️ Graph-Visualisierung</text>
<rect x="210.0" y="180" width="56.5" height="18" rx="3" fill="#1f6f3c"/>
<rect x="0" y="206" width="1200" height="34" fill="#f7f7fa"/>
<text x="198" y="227" font-size="12" text-anchor="end" fill="#33373b">🗂️ Daten &amp; UI-Rahmen</text>
<rect x="266.5" y="214" width="6.0" height="18" rx="3" fill="#1f6f3c"/>
<rect x="0" y="240" width="1200" height="34" fill="#ffffff"/>
<text x="198" y="261" font-size="12" text-anchor="end" fill="#33373b">🚀 Deployment &amp; Betrieb</text>
<rect x="266.5" y="248" width="6.0" height="18" rx="3" fill="#1f6f3c"/>
<polygon points="379.4,252.0 384.4,257.0 379.4,262.0 374.4,257.0" fill="#234a78"/>
<text x="387.4" y="261.0" font-size="10" fill="#234a78">AP-35 run.ps1 leeres-venv-Fix</text>
<polygon points="435.9,252.0 440.9,257.0 435.9,262.0 430.9,257.0" fill="#234a78"/>
<text x="443.9" y="249.0" font-size="10" fill="#234a78">AP-31 Idle-Shutdown/Deploy (Rest)</text>
<polygon points="435.9,252.0 440.9,257.0 435.9,262.0 430.9,257.0" fill="#234a78"/>
<text x="443.9" y="249.0" font-size="10" fill="#234a78">AP-34 Log-Fenster/Verknüpfung</text>
<rect x="0" y="274" width="1200" height="34" fill="#f7f7fa"/>
<text x="198" y="295" font-size="12" text-anchor="end" fill="#33373b">📚 Doku &amp; Prozess</text>
<rect x="266.5" y="282" width="6.0" height="18" rx="3" fill="#1f6f3c"/>
<polygon points="492.4,286.0 497.4,291.0 492.4,296.0 487.4,291.0" fill="#234a78"/>
<text x="500.4" y="295.0" font-size="10" fill="#234a78">AP-19 .pattern_transfer</text>
<rect x="0" y="308" width="1200" height="34" fill="#ffffff"/>
<text x="198" y="329" font-size="12" text-anchor="end" fill="#33373b">🧬 Legacy-DB-Migration / Export</text>
<rect x="379.4" y="316" width="56.5" height="18" rx="3" fill="#1f6f3c"/>
<polygon points="718.2,320.0 723.2,325.0 718.2,330.0 713.2,325.0" fill="#234a78"/>
<text x="726.2" y="329.0" font-size="10" fill="#234a78">AP-57 Cross-Schema-Joins</text>
<rect x="0" y="342" width="1200" height="34" fill="#f7f7fa"/>
<text x="198" y="363" font-size="12" text-anchor="end" fill="#33373b">🗃️ DB-Objekt-Kategorien</text>
<rect x="435.9" y="350" width="112.9" height="18" rx="3" fill="#1f6f3c"/>
<polygon points="1057.1,354.0 1062.1,359.0 1057.1,364.0 1052.1,359.0" fill="#234a78"/>
<text x="1065.1" y="363.0" font-size="10" fill="#234a78">AP-66·S2/S3 Views→Routinen (Rest)</text>
<rect x="0" y="376" width="1200" height="34" fill="#ffffff"/>
<text x="198" y="397" font-size="12" text-anchor="end" fill="#33373b">🔧 Verbindungs-UX &amp; Demo-Daten</text>
<rect x="379.4" y="384" width="56.5" height="18" rx="3" fill="#1f6f3c"/>
<polygon points="1113.5,388.0 1118.5,393.0 1113.5,398.0 1108.5,393.0" fill="#234a78"/>
<text x="1121.5" y="397.0" font-size="10" fill="#234a78">AP-61 Demo-CMDB → volle CMDB</text>
<polygon points="1170.0,388.0 1175.0,393.0 1170.0,398.0 1165.0,393.0" fill="#234a78"/>
<text x="1178.0" y="385.0" font-size="10" fill="#234a78">AP-62 Passwort-Keyring</text>
<rect x="210" y="423" width="22" height="12" rx="3" fill="#1f6f3c"/>
<text x="238" y="433" font-size="11" fill="#33373b">erledigt (Zeitraum)</text>
<polygon points="400,426 406,432 400,438 394,432" fill="#234a78"/>
<text x="414" y="433" font-size="11" fill="#33373b">offen (Ziel-Datum)</text>
</svg>