<svg id="my-svg" width="2384" xmlns="http://www.w3.org/2000/svg" xmlns:xlink="http://www.w3.org/1999/xlink" viewBox="0 0 2384 2524" style="max-width: 2384px; background-color: transparent;" role="graphics-document document" aria-roledescription="gantt"><style>#my-svg{font-family:"trebuchet ms",verdana,arial,sans-serif;font-size:16px;fill:#333;}@keyframes edge-animation-frame{from{stroke-dashoffset:0;}}@keyframes dash{to{stroke-dashoffset:0;}}#my-svg .edge-animation-slow{stroke-dasharray:9,5!important;stroke-dashoffset:900;animation:dash 50s linear infinite;stroke-linecap:round;}#my-svg .edge-animation-fast{stroke-dasharray:9,5!important;stroke-dashoffset:900;animation:dash 20s linear infinite;stroke-linecap:round;}#my-svg .error-icon{fill:#552222;}#my-svg .error-text{fill:#552222;stroke:#552222;}#my-svg .edge-thickness-normal{stroke-width:1px;}#my-svg .edge-thickness-thick{stroke-width:3.5px;}#my-svg .edge-pattern-solid{stroke-dasharray:0;}#my-svg .edge-thickness-invisible{stroke-width:0;fill:none;}#my-svg .edge-pattern-dashed{stroke-dasharray:3;}#my-svg .edge-pattern-dotted{stroke-dasharray:2;}#my-svg .marker{fill:#333333;stroke:#333333;}#my-svg .marker.cross{stroke:#333333;}#my-svg svg{font-family:"trebuchet ms",verdana,arial,sans-serif;font-size:16px;}#my-svg p{margin:0;}#my-svg .mermaid-main-font{font-family:"trebuchet ms",verdana,arial,sans-serif;}#my-svg .exclude-range{fill:#eeeeee;}#my-svg .section{stroke:none;opacity:0.2;}#my-svg .section0{fill:rgba(102, 102, 255, 0.49);}#my-svg .section2{fill:#fff400;}#my-svg .section1,#my-svg .section3{fill:white;opacity:0.2;}#my-svg .sectionTitle0{fill:#333;}#my-svg .sectionTitle1{fill:#333;}#my-svg .sectionTitle2{fill:#333;}#my-svg .sectionTitle3{fill:#333;}#my-svg .sectionTitle{text-anchor:start;font-family:"trebuchet ms",verdana,arial,sans-serif;}#my-svg .grid .tick{stroke:lightgrey;opacity:0.8;shape-rendering:crispEdges;}#my-svg .grid .tick text{font-family:"trebuchet ms",verdana,arial,sans-serif;fill:#333;}#my-svg .grid path{stroke-width:0;}#my-svg .today{fill:none;stroke:red;stroke-width:2px;}#my-svg .task{stroke-width:2;}#my-svg .taskText{text-anchor:middle;font-family:"trebuchet ms",verdana,arial,sans-serif;}#my-svg .taskTextOutsideRight{fill:black;text-anchor:start;font-family:"trebuchet ms",verdana,arial,sans-serif;}#my-svg .taskTextOutsideLeft{fill:black;text-anchor:end;}#my-svg .task.clickable{cursor:pointer;}#my-svg .taskText.clickable{cursor:pointer;fill:#003163!important;font-weight:bold;}#my-svg .taskTextOutsideLeft.clickable{cursor:pointer;fill:#003163!important;font-weight:bold;}#my-svg .taskTextOutsideRight.clickable{cursor:pointer;fill:#003163!important;font-weight:bold;}#my-svg .taskText0,#my-svg .taskText1,#my-svg .taskText2,#my-svg .taskText3{fill:white;}#my-svg .task0,#my-svg .task1,#my-svg .task2,#my-svg .task3{fill:#8a90dd;stroke:#534fbc;}#my-svg .taskTextOutside0,#my-svg .taskTextOutside2{fill:black;}#my-svg .taskTextOutside1,#my-svg .taskTextOutside3{fill:black;}#my-svg .active0,#my-svg .active1,#my-svg .active2,#my-svg .active3{fill:#bfc7ff;stroke:#534fbc;}#my-svg .activeText0,#my-svg .activeText1,#my-svg .activeText2,#my-svg .activeText3{fill:black!important;}#my-svg .done0,#my-svg .done1,#my-svg .done2,#my-svg .done3{stroke:grey;fill:lightgrey;stroke-width:2;}#my-svg .doneText0,#my-svg .doneText1,#my-svg .doneText2,#my-svg .doneText3{fill:black!important;}#my-svg .doneText0.taskTextOutsideLeft,#my-svg .doneText0.taskTextOutsideRight,#my-svg .doneText1.taskTextOutsideLeft,#my-svg .doneText1.taskTextOutsideRight,#my-svg .doneText2.taskTextOutsideLeft,#my-svg .doneText2.taskTextOutsideRight,#my-svg .doneText3.taskTextOutsideLeft,#my-svg .doneText3.taskTextOutsideRight{fill:black!important;}#my-svg .crit0,#my-svg .crit1,#my-svg .crit2,#my-svg .crit3{stroke:#ff8888;fill:red;stroke-width:2;}#my-svg .activeCrit0,#my-svg .activeCrit1,#my-svg .activeCrit2,#my-svg .activeCrit3{stroke:#ff8888;fill:#bfc7ff;stroke-width:2;}#my-svg .doneCrit0,#my-svg .doneCrit1,#my-svg .doneCrit2,#my-svg .doneCrit3{stroke:#ff8888;fill:lightgrey;stroke-width:2;cursor:pointer;shape-rendering:crispEdges;}#my-svg .milestone{transform:rotate(45deg) scale(0.8,0.8);}#my-svg .milestoneText{font-style:italic;}#my-svg .doneCritText0,#my-svg .doneCritText1,#my-svg .doneCritText2,#my-svg .doneCritText3{fill:black!important;}#my-svg .doneCritText0.taskTextOutsideLeft,#my-svg .doneCritText0.taskTextOutsideRight,#my-svg .doneCritText1.taskTextOutsideLeft,#my-svg .doneCritText1.taskTextOutsideRight,#my-svg .doneCritText2.taskTextOutsideLeft,#my-svg .doneCritText2.taskTextOutsideRight,#my-svg .doneCritText3.taskTextOutsideLeft,#my-svg .doneCritText3.taskTextOutsideRight{fill:black!important;}#my-svg .vert{stroke:navy;}#my-svg .vertText{font-size:15px;text-anchor:middle;fill:navy!important;}#my-svg .activeCritText0,#my-svg .activeCritText1,#my-svg .activeCritText2,#my-svg .activeCritText3{fill:black!important;}#my-svg .titleText{text-anchor:middle;font-size:18px;fill:#333;font-family:"trebuchet ms",verdana,arial,sans-serif;}#my-svg .node .neo-node{stroke:#9370DB;}#my-svg [data-look="neo"].node rect,#my-svg [data-look="neo"].cluster rect,#my-svg [data-look="neo"].node polygon{stroke:#9370DB;filter:drop-shadow(1px 2px 2px rgba(185, 185, 185, 1));}#my-svg [data-look="neo"].node path{stroke:#9370DB;stroke-width:1px;}#my-svg [data-look="neo"].node .outer-path{filter:drop-shadow(1px 2px 2px rgba(185, 185, 185, 1));}#my-svg [data-look="neo"].node .neo-line path{stroke:#9370DB;filter:none;}#my-svg [data-look="neo"].node circle{stroke:#9370DB;filter:drop-shadow(1px 2px 2px rgba(185, 185, 185, 1));}#my-svg [data-look="neo"].node circle .state-start{fill:#000000;}#my-svg [data-look="neo"].icon-shape .icon{fill:#9370DB;filter:drop-shadow(1px 2px 2px rgba(185, 185, 185, 1));}#my-svg [data-look="neo"].icon-shape .icon-neo path{stroke:#9370DB;filter:drop-shadow(1px 2px 2px rgba(185, 185, 185, 1));}#my-svg :root{--mermaid-font-family:"trebuchet ms",verdana,arial,sans-serif;}</style><g/><g class="grid" transform="translate(75, 2474)" fill="none" font-size="10" font-family="sans-serif" text-anchor="middle"><path class="domain" stroke="currentColor" d="M0.5,-2439V0.5H2234.5V-2439"/><g class="tick" opacity="1" transform="translate(0.5,0)"><line stroke="currentColor" y2="-2439"/><text fill="#000" y="3" dy="1em" stroke="none" font-size="10" style="text-anchor: middle;"> 25.06</text></g><g class="tick" opacity="1" transform="translate(248.5,0)"><line stroke="currentColor" y2="-2439"/><text fill="#000" y="3" dy="1em" stroke="none" font-size="10" style="text-anchor: middle;"> 27.06</text></g><g class="tick" opacity="1" transform="translate(496.5,0)"><line stroke="currentColor" y2="-2439"/><text fill="#000" y="3" dy="1em" stroke="none" font-size="10" style="text-anchor: middle;"> 29.06</text></g><g class="tick" opacity="1" transform="translate(745.5,0)"><line stroke="currentColor" y2="-2439"/><text fill="#000" y="3" dy="1em" stroke="none" font-size="10" style="text-anchor: middle;"> 01.07</text></g><g class="tick" opacity="1" transform="translate(993.5,0)"><line stroke="currentColor" y2="-2439"/><text fill="#000" y="3" dy="1em" stroke="none" font-size="10" style="text-anchor: middle;"> 03.07</text></g><g class="tick" opacity="1" transform="translate(1241.5,0)"><line stroke="currentColor" y2="-2439"/><text fill="#000" y="3" dy="1em" stroke="none" font-size="10" style="text-anchor: middle;"> 05.07</text></g><g class="tick" opacity="1" transform="translate(1489.5,0)"><line stroke="currentColor" y2="-2439"/><text fill="#000" y="3" dy="1em" stroke="none" font-size="10" style="text-anchor: middle;"> 07.07</text></g><g class="tick" opacity="1" transform="translate(1738.5,0)"><line stroke="currentColor" y2="-2439"/><text fill="#000" y="3" dy="1em" stroke="none" font-size="10" style="text-anchor: middle;"> 09.07</text></g><g class="tick" opacity="1" transform="translate(1986.5,0)"><line stroke="currentColor" y2="-2439"/><text fill="#000" y="3" dy="1em" stroke="none" font-size="10" style="text-anchor: middle;"> 11.07</text></g><g class="tick" opacity="1" transform="translate(2234.5,0)"><line stroke="currentColor" y2="-2439"/><text fill="#000" y="3" dy="1em" stroke="none" font-size="10" style="text-anchor: middle;"> 13.07</text></g></g><g><rect x="0" y="48" width="2346.5" height="24" class="section section0"/><rect x="0" y="72" width="2346.5" height="24" class="section section0"/><rect x="0" y="96" width="2346.5" height="24" class="section section0"/><rect x="0" y="120" width="2346.5" height="24" class="section section0"/><rect x="0" y="144" width="2346.5" height="24" class="section section0"/><rect x="0" y="168" width="2346.5" height="24" class="section section0"/><rect x="0" y="192" width="2346.5" height="24" class="section section1"/><rect x="0" y="216" width="2346.5" height="24" class="section section1"/><rect x="0" y="240" width="2346.5" height="24" class="section section1"/><rect x="0" y="264" width="2346.5" height="24" class="section section1"/><rect x="0" y="288" width="2346.5" height="24" class="section section1"/><rect x="0" y="312" width="2346.5" height="24" class="section section1"/><rect x="0" y="336" width="2346.5" height="24" class="section section1"/><rect x="0" y="360" width="2346.5" height="24" class="section section1"/><rect x="0" y="384" width="2346.5" height="24" class="section section1"/><rect x="0" y="408" width="2346.5" height="24" class="section section2"/><rect x="0" y="432" width="2346.5" height="24" class="section section2"/><rect x="0" y="456" width="2346.5" height="24" class="section section2"/><rect x="0" y="480" width="2346.5" height="24" class="section section2"/><rect x="0" y="504" width="2346.5" height="24" class="section section3"/><rect x="0" y="528" width="2346.5" height="24" class="section section3"/><rect x="0" y="552" width="2346.5" height="24" class="section section3"/><rect x="0" y="576" width="2346.5" height="24" class="section section3"/><rect x="0" y="600" width="2346.5" height="24" class="section section0"/><rect x="0" y="624" width="2346.5" height="24" class="section section0"/><rect x="0" y="648" width="2346.5" height="24" class="section section0"/><rect x="0" y="672" width="2346.5" height="24" class="section section0"/><rect x="0" y="696" width="2346.5" height="24" class="section section0"/><rect x="0" y="720" width="2346.5" height="24" class="section section0"/><rect x="0" y="744" width="2346.5" height="24" class="section section0"/><rect x="0" y="768" width="2346.5" height="24" class="section section0"/><rect x="0" y="792" width="2346.5" height="24" class="section section0"/><rect x="0" y="816" width="2346.5" height="24" class="section section0"/><rect x="0" y="840" width="2346.5" height="24" class="section section0"/><rect x="0" y="864" width="2346.5" height="24" class="section section0"/><rect x="0" y="888" width="2346.5" height="24" class="section section0"/><rect x="0" y="912" width="2346.5" height="24" class="section section0"/><rect x="0" y="936" width="2346.5" height="24" class="section section0"/><rect x="0" y="960" width="2346.5" height="24" class="section section0"/><rect x="0" y="984" width="2346.5" height="24" class="section section0"/><rect x="0" y="1008" width="2346.5" height="24" class="section section0"/><rect x="0" y="1032" width="2346.5" height="24" class="section section0"/><rect x="0" y="1056" width="2346.5" height="24" class="section section0"/><rect x="0" y="1080" width="2346.5" height="24" class="section section0"/><rect x="0" y="1104" width="2346.5" height="24" class="section section0"/><rect x="0" y="1128" width="2346.5" height="24" class="section section0"/><rect x="0" y="1152" width="2346.5" height="24" class="section section0"/><rect x="0" y="1176" width="2346.5" height="24" class="section section0"/><rect x="0" y="1200" width="2346.5" height="24" class="section section0"/><rect x="0" y="1224" width="2346.5" height="24" class="section section0"/><rect x="0" y="1248" width="2346.5" height="24" class="section section0"/><rect x="0" y="1272" width="2346.5" height="24" class="section section1"/><rect x="0" y="1296" width="2346.5" height="24" class="section section1"/><rect x="0" y="1320" width="2346.5" height="24" class="section section1"/><rect x="0" y="1344" width="2346.5" height="24" class="section section1"/><rect x="0" y="1368" width="2346.5" height="24" class="section section1"/><rect x="0" y="1392" width="2346.5" height="24" class="section section1"/><rect x="0" y="1416" width="2346.5" height="24" class="section section1"/><rect x="0" y="1440" width="2346.5" height="24" class="section section1"/><rect x="0" y="1464" width="2346.5" height="24" class="section section1"/><rect x="0" y="1488" width="2346.5" height="24" class="section section1"/><rect x="0" y="1512" width="2346.5" height="24" class="section section1"/><rect x="0" y="1536" width="2346.5" height="24" class="section section1"/><rect x="0" y="1560" width="2346.5" height="24" class="section section1"/><rect x="0" y="1584" width="2346.5" height="24" class="section section1"/><rect x="0" y="1608" width="2346.5" height="24" class="section section1"/><rect x="0" y="1632" width="2346.5" height="24" class="section section1"/><rect x="0" y="1656" width="2346.5" height="24" class="section section1"/><rect x="0" y="1680" width="2346.5" height="24" class="section section1"/><rect x="0" y="1704" width="2346.5" height="24" class="section section1"/><rect x="0" y="1728" width="2346.5" height="24" class="section section1"/><rect x="0" y="1752" width="2346.5" height="24" class="section section1"/><rect x="0" y="1776" width="2346.5" height="24" class="section section1"/><rect x="0" y="2280" width="2346.5" height="24" class="section section3"/><rect x="0" y="1800" width="2346.5" height="24" class="section section1"/><rect x="0" y="1824" width="2346.5" height="24" class="section section2"/><rect x="0" y="1848" width="2346.5" height="24" class="section section2"/><rect x="0" y="1872" width="2346.5" height="24" class="section section2"/><rect x="0" y="1896" width="2346.5" height="24" class="section section2"/><rect x="0" y="1920" width="2346.5" height="24" class="section section2"/><rect x="0" y="1944" width="2346.5" height="24" class="section section2"/><rect x="0" y="1968" width="2346.5" height="24" class="section section2"/><rect x="0" y="1992" width="2346.5" height="24" class="section section2"/><rect x="0" y="2016" width="2346.5" height="24" class="section section2"/><rect x="0" y="2040" width="2346.5" height="24" class="section section2"/><rect x="0" y="2304" width="2346.5" height="24" class="section section3"/><rect x="0" y="2328" width="2346.5" height="24" class="section section3"/><rect x="0" y="2064" width="2346.5" height="24" class="section section2"/><rect x="0" y="2088" width="2346.5" height="24" class="section section2"/><rect x="0" y="2352" width="2346.5" height="24" class="section section3"/><rect x="0" y="2112" width="2346.5" height="24" class="section section2"/><rect x="0" y="2136" width="2346.5" height="24" class="section section2"/><rect x="0" y="2160" width="2346.5" height="24" class="section section2"/><rect x="0" y="2184" width="2346.5" height="24" class="section section2"/><rect x="0" y="2208" width="2346.5" height="24" class="section section2"/><rect x="0" y="2232" width="2346.5" height="24" class="section section2"/><rect x="0" y="2256" width="2346.5" height="24" class="section section2"/><rect x="0" y="2376" width="2346.5" height="24" class="section section0"/><rect x="0" y="2400" width="2346.5" height="24" class="section section1"/><rect x="0" y="2424" width="2346.5" height="24" class="section section2"/><rect x="0" y="2448" width="2346.5" height="24" class="section section2"/></g><g><rect id="my-svg-d1" rx="3" ry="3" x="75" y="50" width="124" height="20" transform-origin="137px 60px" class="task done0"/><rect id="my-svg-d2" rx="3" ry="3" x="75" y="74" width="124" height="20" transform-origin="137px 84px" class="task done0"/><rect id="my-svg-d3" rx="3" ry="3" x="75" y="98" width="124" height="20" transform-origin="137px 108px" class="task done0"/><rect id="my-svg-d4" rx="3" ry="3" x="75" y="122" width="124" height="20" transform-origin="137px 132px" class="task done0"/><rect id="my-svg-d5" rx="3" ry="3" x="75" y="146" width="124" height="20" transform-origin="137px 156px" class="task done0"/><rect id="my-svg-d6" rx="3" ry="3" x="75" y="170" width="124" height="20" transform-origin="137px 180px" class="task done0"/><rect id="my-svg-a1" rx="3" ry="3" x="75" y="194" width="124" height="20" transform-origin="137px 204px" class="task done1"/><rect id="my-svg-a2" rx="3" ry="3" x="75" y="218" width="124" height="20" transform-origin="137px 228px" class="task done1"/><rect id="my-svg-a3" rx="3" ry="3" x="75" y="242" width="124" height="20" transform-origin="137px 252px" class="task done1"/><rect id="my-svg-a4" rx="3" ry="3" x="75" y="266" width="124" height="20" transform-origin="137px 276px" class="task done1"/><rect id="my-svg-a5" rx="3" ry="3" x="199" y="290" width="124" height="20" transform-origin="261px 300px" class="task done1"/><rect id="my-svg-a6" rx="3" ry="3" x="199" y="314" width="124" height="20" transform-origin="261px 324px" class="task done1"/><rect id="my-svg-a7" rx="3" ry="3" x="199" y="338" width="124" height="20" transform-origin="261px 348px" class="task done1"/><rect id="my-svg-a8" rx="3" ry="3" x="199" y="362" width="124" height="20" transform-origin="261px 372px" class="task done1"/><rect id="my-svg-a9" rx="3" ry="3" x="199" y="386" width="124" height="20" transform-origin="261px 396px" class="task done1"/><rect id="my-svg-b1" rx="3" ry="3" x="199" y="410" width="124" height="20" transform-origin="261px 420px" class="task done2"/><rect id="my-svg-b2" rx="3" ry="3" x="199" y="434" width="124" height="20" transform-origin="261px 444px" class="task done2"/><rect id="my-svg-b3" rx="3" ry="3" x="199" y="458" width="124" height="20" transform-origin="261px 468px" class="task done2"/><rect id="my-svg-b4" rx="3" ry="3" x="199" y="482" width="124" height="20" transform-origin="261px 492px" class="task done2"/><rect id="my-svg-c1" rx="3" ry="3" x="199" y="506" width="124" height="20" transform-origin="261px 516px" class="task done3"/><rect id="my-svg-c2" rx="3" ry="3" x="199" y="530" width="124" height="20" transform-origin="261px 540px" class="task done3"/><rect id="my-svg-c3" rx="3" ry="3" x="199" y="554" width="124" height="20" transform-origin="261px 564px" class="task done3"/><rect id="my-svg-c4" rx="3" ry="3" x="199" y="578" width="124" height="20" transform-origin="261px 588px" class="task done3"/><rect id="my-svg-e1" rx="3" ry="3" x="199" y="602" width="124" height="20" transform-origin="261px 612px" class="task done0"/><rect id="my-svg-e2" rx="3" ry="3" x="199" y="626" width="124" height="20" transform-origin="261px 636px" class="task done0"/><rect id="my-svg-e3" rx="3" ry="3" x="199" y="650" width="124" height="20" transform-origin="261px 660px" class="task done0"/><rect id="my-svg-e4" rx="3" ry="3" x="199" y="674" width="124" height="20" transform-origin="261px 684px" class="task done0"/><rect id="my-svg-e5" rx="3" ry="3" x="199" y="698" width="124" height="20" transform-origin="261px 708px" class="task done0"/><rect id="my-svg-e6" rx="3" ry="3" x="199" y="722" width="124" height="20" transform-origin="261px 732px" class="task done0"/><rect id="my-svg-e7" rx="3" ry="3" x="199" y="746" width="124" height="20" transform-origin="261px 756px" class="task done0"/><rect id="my-svg-e8" rx="3" ry="3" x="199" y="770" width="124" height="20" transform-origin="261px 780px" class="task done0"/><rect id="my-svg-e9" rx="3" ry="3" x="199" y="794" width="124" height="20" transform-origin="261px 804px" class="task done0"/><rect id="my-svg-e10" rx="3" ry="3" x="199" y="818" width="124" height="20" transform-origin="261px 828px" class="task done0"/><rect id="my-svg-e11" rx="3" ry="3" x="199" y="842" width="124" height="20" transform-origin="261px 852px" class="task done0"/><rect id="my-svg-e12" rx="3" ry="3" x="323" y="866" width="124" height="20" transform-origin="385px 876px" class="task done0"/><rect id="my-svg-e13" rx="3" ry="3" x="323" y="890" width="124" height="20" transform-origin="385px 900px" class="task done0"/><rect id="my-svg-e14" rx="3" ry="3" x="323" y="914" width="124" height="20" transform-origin="385px 924px" class="task done0"/><rect id="my-svg-e15" rx="3" ry="3" x="323" y="938" width="124" height="20" transform-origin="385px 948px" class="task done0"/><rect id="my-svg-e16" rx="3" ry="3" x="323" y="962" width="124" height="20" transform-origin="385px 972px" class="task done0"/><rect id="my-svg-e17" rx="3" ry="3" x="323" y="986" width="124" height="20" transform-origin="385px 996px" class="task done0"/><rect id="my-svg-e18" rx="3" ry="3" x="323" y="1010" width="124" height="20" transform-origin="385px 1020px" class="task done0"/><rect id="my-svg-e19" rx="3" ry="3" x="323" y="1034" width="124" height="20" transform-origin="385px 1044px" class="task done0"/><rect id="my-svg-e20" rx="3" ry="3" x="323" y="1058" width="124" height="20" transform-origin="385px 1068px" class="task done0"/><rect id="my-svg-e21" rx="3" ry="3" x="323" y="1082" width="124" height="20" transform-origin="385px 1092px" class="task done0"/><rect id="my-svg-e22" rx="3" ry="3" x="323" y="1106" width="124" height="20" transform-origin="385px 1116px" class="task done0"/><rect id="my-svg-e23" rx="3" ry="3" x="323" y="1130" width="124" height="20" transform-origin="385px 1140px" class="task done0"/><rect id="my-svg-e24" rx="3" ry="3" x="323" y="1154" width="124" height="20" transform-origin="385px 1164px" class="task done0"/><rect id="my-svg-e25" rx="3" ry="3" x="323" y="1178" width="124" height="20" transform-origin="385px 1188px" class="task done0"/><rect id="my-svg-e26" rx="3" ry="3" x="323" y="1202" width="124" height="20" transform-origin="385px 1212px" class="task done0"/><rect id="my-svg-e27" rx="3" ry="3" x="323" y="1226" width="124" height="20" transform-origin="385px 1236px" class="task done0"/><rect id="my-svg-e28" rx="3" ry="3" x="323" y="1250" width="124" height="20" transform-origin="385px 1260px" class="task done0"/><rect id="my-svg-f1" rx="3" ry="3" x="323" y="1274" width="124" height="20" transform-origin="385px 1284px" class="task done1"/><rect id="my-svg-f2" rx="3" ry="3" x="323" y="1298" width="124" height="20" transform-origin="385px 1308px" class="task done1"/><rect id="my-svg-f3" rx="3" ry="3" x="323" y="1322" width="124" height="20" transform-origin="385px 1332px" class="task done1"/><rect id="my-svg-f4" rx="3" ry="3" x="323" y="1346" width="124" height="20" transform-origin="385px 1356px" class="task done1"/><rect id="my-svg-f5" rx="3" ry="3" x="323" y="1370" width="124" height="20" transform-origin="385px 1380px" class="task done1"/><rect id="my-svg-f6" rx="3" ry="3" x="447" y="1394" width="124" height="20" transform-origin="509px 1404px" class="task done1"/><rect id="my-svg-f7" rx="3" ry="3" x="447" y="1418" width="124" height="20" transform-origin="509px 1428px" class="task done1"/><rect id="my-svg-f8" rx="3" ry="3" x="447" y="1442" width="124" height="20" transform-origin="509px 1452px" class="task done1"/><rect id="my-svg-f9" rx="3" ry="3" x="447" y="1466" width="124" height="20" transform-origin="509px 1476px" class="task done1"/><rect id="my-svg-f10" rx="3" ry="3" x="447" y="1490" width="124" height="20" transform-origin="509px 1500px" class="task done1"/><rect id="my-svg-f11" rx="3" ry="3" x="447" y="1514" width="124" height="20" transform-origin="509px 1524px" class="task done1"/><rect id="my-svg-f12" rx="3" ry="3" x="447" y="1538" width="124" height="20" transform-origin="509px 1548px" class="task done1"/><rect id="my-svg-f13" rx="3" ry="3" x="447" y="1562" width="124" height="20" transform-origin="509px 1572px" class="task done1"/><rect id="my-svg-f14" rx="3" ry="3" x="447" y="1586" width="124" height="20" transform-origin="509px 1596px" class="task done1"/><rect id="my-svg-f15" rx="3" ry="3" x="447" y="1610" width="124" height="20" transform-origin="509px 1620px" class="task done1"/><rect id="my-svg-f16" rx="3" ry="3" x="447" y="1634" width="124" height="20" transform-origin="509px 1644px" class="task done1"/><rect id="my-svg-f17" rx="3" ry="3" x="447" y="1658" width="124" height="20" transform-origin="509px 1668px" class="task done1"/><rect id="my-svg-f18" rx="3" ry="3" x="447" y="1682" width="124" height="20" transform-origin="509px 1692px" class="task done1"/><rect id="my-svg-f19" rx="3" ry="3" x="447" y="1706" width="124" height="20" transform-origin="509px 1716px" class="task done1"/><rect id="my-svg-f20" rx="3" ry="3" x="447" y="1730" width="124" height="20" transform-origin="509px 1740px" class="task done1"/><rect id="my-svg-f21" rx="3" ry="3" x="447" y="1754" width="124" height="20" transform-origin="509px 1764px" class="task done1"/><rect id="my-svg-f22" rx="3" ry="3" x="447" y="1778" width="124" height="20" transform-origin="509px 1788px" class="task done1"/><rect id="my-svg-p3" rx="3" ry="3" x="447" y="2282" width="124" height="20" transform-origin="509px 2292px" class="task task3"/><rect id="my-svg-f23" rx="3" ry="3" x="571" y="1802" width="125" height="20" transform-origin="633.5px 1812px" class="task done1"/><rect id="my-svg-f24" rx="3" ry="3" x="571" y="1826" width="125" height="20" transform-origin="633.5px 1836px" class="task done2"/><rect id="my-svg-f25" rx="3" ry="3" x="571" y="1850" width="125" height="20" transform-origin="633.5px 1860px" class="task done2"/><rect id="my-svg-f26" rx="3" ry="3" x="571" y="1874" width="125" height="20" transform-origin="633.5px 1884px" class="task done2"/><rect id="my-svg-f27" rx="3" ry="3" x="571" y="1898" width="125" height="20" transform-origin="633.5px 1908px" class="task done2"/><rect id="my-svg-f28" rx="3" ry="3" x="571" y="1922" width="125" height="20" transform-origin="633.5px 1932px" class="task done2"/><rect id="my-svg-f29" rx="3" ry="3" x="571" y="1946" width="125" height="20" transform-origin="633.5px 1956px" class="task done2"/><rect id="my-svg-f30" rx="3" ry="3" x="571" y="1970" width="125" height="20" transform-origin="633.5px 1980px" class="task done2"/><rect id="my-svg-f31" rx="3" ry="3" x="571" y="1994" width="125" height="20" transform-origin="633.5px 2004px" class="task done2"/><rect id="my-svg-f32" rx="3" ry="3" x="571" y="2018" width="125" height="20" transform-origin="633.5px 2028px" class="task done2"/><rect id="my-svg-f33" rx="3" ry="3" x="571" y="2042" width="125" height="20" transform-origin="633.5px 2052px" class="task done2"/><rect id="my-svg-p5" rx="3" ry="3" x="571" y="2306" width="125" height="20" transform-origin="633.5px 2316px" class="task task3"/><rect id="my-svg-p6" rx="3" ry="3" x="571" y="2330" width="125" height="20" transform-origin="633.5px 2340px" class="task task3"/><rect id="my-svg-f34" rx="3" ry="3" x="696" y="2066" width="124" height="20" transform-origin="758px 2076px" class="task done2"/><rect id="my-svg-f35" rx="3" ry="3" x="696" y="2090" width="124" height="20" transform-origin="758px 2100px" class="task done2"/><rect id="my-svg-p11" rx="3" ry="3" x="696" y="2354" width="124" height="20" transform-origin="758px 2364px" class="task task3"/><rect id="my-svg-f36" rx="3" ry="3" x="820" y="2114" width="124" height="20" transform-origin="882px 2124px" class="task done2"/><rect id="my-svg-f37" rx="3" ry="3" x="820" y="2138" width="124" height="20" transform-origin="882px 2148px" class="task done2"/><rect id="my-svg-f38" rx="3" ry="3" x="820" y="2162" width="124" height="20" transform-origin="882px 2172px" class="task done2"/><rect id="my-svg-f39" rx="3" ry="3" x="820" y="2186" width="124" height="20" transform-origin="882px 2196px" class="task done2"/><rect id="my-svg-f40" rx="3" ry="3" x="820" y="2210" width="124" height="20" transform-origin="882px 2220px" class="task done2"/><rect id="my-svg-f41" rx="3" ry="3" x="820" y="2234" width="124" height="20" transform-origin="882px 2244px" class="task done2"/><rect id="my-svg-f42" rx="3" ry="3" x="820" y="2258" width="124" height="20" transform-origin="882px 2268px" class="task done2"/><rect id="my-svg-p23" rx="3" ry="3" x="1192" y="2378" width="124" height="20" transform-origin="1254px 2388px" class="task task0"/><rect id="my-svg-p33" rx="3" ry="3" x="1937" y="2402" width="124" height="20" transform-origin="1999px 2412px" class="task task1"/><rect id="my-svg-p41" rx="3" ry="3" x="2061" y="2426" width="124" height="20" transform-origin="2123px 2436px" class="task task2"/><rect id="my-svg-p42" rx="3" ry="3" x="2185" y="2450" width="124" height="20" transform-origin="2247px 2460px" class="task task2"/><text id="my-svg-d1-text" font-size="11" x="204" y="63.5" class="taskTextOutsideRight taskTextOutside0  doneText0 width-157.0771484375">Core-Domänenmodell + Loaders          </text><text id="my-svg-d2-text" font-size="11" x="204" y="87.5" class="taskTextOutsideRight taskTextOutside0  doneText0 width-191.59716796875">FK-Graph · Pathfinder · SQL-Generator </text><text id="my-svg-d3-text" font-size="11" x="204" y="111.5" class="taskTextOutsideRight taskTextOutside0  doneText0 width-155.171875">Flask-API · Filter-UI · Graph-Viz     </text><text id="my-svg-d4-text" font-size="11" x="204" y="135.5" class="taskTextOutsideRight taskTextOutside0  doneText0 width-158.5380859375">3-Panel · Datenvorschau · Views       </text><text id="my-svg-d5-text" font-size="11" x="204" y="159.5" class="taskTextOutsideRight taskTextOutside0  doneText0 width-179.1416015625">Verbindungs-Manager · Implizite FKs   </text><text id="my-svg-d6-text" font-size="11" x="204" y="183.5" class="taskTextOutsideRight taskTextOutside0  doneText0 width-194.73388671875">Demo-CMDB · run.sh/ps1 · Doku/Poster  </text><text id="my-svg-a1-text" font-size="11" x="204" y="207.5" class="taskTextOutsideRight taskTextOutside1  doneText1 width-187.953125">AP-1 — Graph-Interaktion (UML-Karte)        </text><text id="my-svg-a2-text" font-size="11" x="204" y="231.5" class="taskTextOutsideRight taskTextOutside1  doneText1 width-189.296875">AP-2 — Fix Verbinden / failed-to-fetch      </text><text id="my-svg-a3-text" font-size="11" x="204" y="255.5" class="taskTextOutsideRight taskTextOutside1  doneText1 width-136.41455078125">AP-3 — SQL-Optionen-Paket                   </text><text id="my-svg-a4-text" font-size="11" x="204" y="279.5" class="taskTextOutsideRight taskTextOutside1  doneText1 width-156.21875">AP-4 — Mehrere SELECT-Spalten               </text><text id="my-svg-a5-text" font-size="11" x="328" y="303.5" class="taskTextOutsideRight taskTextOutside1  doneText1 width-212.640625">AP-5 — Ausgabebereich (SELECT ausführen)    </text><text id="my-svg-a6-text" font-size="11" x="328" y="327.5" class="taskTextOutsideRight taskTextOutside1  doneText1 width-214.796875">AP-6 — Ausgabe-Steuerung (Zeilen/Refresh)   </text><text id="my-svg-a7-text" font-size="11" x="328" y="351.5" class="taskTextOutsideRight taskTextOutside1  doneText1 width-173.501953125">AP-7 — Feiner Graph-Zoom + Slider           </text><text id="my-svg-a8-text" font-size="11" x="328" y="375.5" class="taskTextOutsideRight taskTextOutside1  doneText1 width-125.8818359375">AP-8 — Fix Auswahl-Reset                    </text><text id="my-svg-a9-text" font-size="11" x="328" y="399.5" class="taskTextOutsideRight taskTextOutside1  doneText1 width-154.16064453125">AP-9 — Ergebnisliste maximiert              </text><text id="my-svg-b1-text" font-size="11" x="328" y="423.5" class="taskTextOutsideRight taskTextOutside2  doneText2 width-208.53125">AP-14 — Python-3.14-Readiness (Windows)     </text><text id="my-svg-b2-text" font-size="11" x="328" y="447.5" class="taskTextOutsideRight taskTextOutside2  doneText2 width-202.59375">AP-11 — Composite FK voll (ON … AND …)      </text><text id="my-svg-b3-text" font-size="11" x="328" y="471.5" class="taskTextOutsideRight taskTextOutside2  doneText2 width-179.13623046875">AP-10 — Verbindungen in der Topbar          </text><text id="my-svg-b4-text" font-size="11" x="328" y="495.5" class="taskTextOutsideRight taskTextOutside2  doneText2 width-185.84375">AP-13 — UI-Politur (Suchfeld/Splitter)      </text><text id="my-svg-c1-text" font-size="11" x="328" y="519.5" class="taskTextOutsideRight taskTextOutside3  doneText3 width-206.4375">AP-15 — run.ps1 abbruchsicher (Windows)     </text><text id="my-svg-c2-text" font-size="11" x="328" y="543.5" class="taskTextOutsideRight taskTextOutside3  doneText3 width-207.84375">AP-12 — MSSQL Treiber/Encrypt (Backend)     </text><text id="my-svg-c3-text" font-size="11" x="328" y="567.5" class="taskTextOutsideRight taskTextOutside3  doneText3 width-149.162109375">AP-20 — Copy-Icon am SELECT                 </text><text id="my-svg-c4-text" font-size="11" x="328" y="591.5" class="taskTextOutsideRight taskTextOutside3  doneText3 width-155.546875">AP-21 — Kosmetik (Balkenhöhe)               </text><text id="my-svg-e1-text" font-size="11" x="328" y="615.5" class="taskTextOutsideRight taskTextOutside0  doneText0 width-173.287109375">AP-23 — Join-Maske vereinheitlicht          </text><text id="my-svg-e2-text" font-size="11" x="328" y="639.5" class="taskTextOutsideRight taskTextOutside0  doneText0 width-163.109375">AP-16 — Graph entzerren (dagre)             </text><text id="my-svg-e3-text" font-size="11" x="328" y="663.5" class="taskTextOutsideRight taskTextOutside0  doneText0 width-197.640625">AP-18 — Multi-Tabellen-Join (verifiziert)   </text><text id="my-svg-e4-text" font-size="11" x="328" y="687.5" class="taskTextOutsideRight taskTextOutside0  doneText0 width-150.77685546875">AP-28 — Scroll nur im Ergebnis              </text><text id="my-svg-e5-text" font-size="11" x="328" y="711.5" class="taskTextOutsideRight taskTextOutside0  doneText0 width-183.1875">AP-32 — Zoom-Slider in der Kopfzeile        </text><text id="my-svg-e6-text" font-size="11" x="261" y="735.5" class="taskText taskText0  doneText0 width-112.70654296875">AP-26 — Audit-Sessions                      </text><text id="my-svg-e7-text" font-size="11" x="261" y="759.5" class="taskText taskText0  doneText0 width-120.41943359375">AP-27 — Insights-Prozess                    </text><text id="my-svg-e8-text" font-size="11" x="328" y="783.5" class="taskTextOutsideRight taskTextOutside0  doneText0 width-183.75">AP-15 — run.sh abbruchsicher (Linux)        </text><text id="my-svg-e9-text" font-size="11" x="328" y="807.5" class="taskTextOutsideRight taskTextOutside0  doneText0 width-228.703125">AP-33 — Logging sauber (Rotation/Level/Pfad) </text><text id="my-svg-e10-text" font-size="11" x="328" y="831.5" class="taskTextOutsideRight taskTextOutside0  doneText0 width-192.046875">AP-14 — Python-3.14-AppImage (Linux)         </text><text id="my-svg-e11-text" font-size="11" x="328" y="855.5" class="taskTextOutsideRight taskTextOutside0  doneText0 width-159.8125">AP-29 — SQL-Dialekt umschalten               </text><text id="my-svg-e12-text" font-size="11" x="452" y="879.5" class="taskTextOutsideRight taskTextOutside0  doneText0 width-197.984375">AP-12 — MSSQL real testbar (+UI-Felder)      </text><text id="my-svg-e13-text" font-size="11" x="452" y="903.5" class="taskTextOutsideRight taskTextOutside0  doneText0 width-241.125">AP-30 — N-1-Stern (Auto-Weaving/Fan-out-Warn) </text><text id="my-svg-e14-text" font-size="11" x="452" y="927.5" class="taskTextOutsideRight taskTextOutside0  doneText0 width-163.7373046875">AP-25 — SQL-Statement-Analyzer               </text><text id="my-svg-e15-text" font-size="11" x="452" y="951.5" class="taskTextOutsideRight taskTextOutside0  doneText0 width-221.765625">AP-36 — Fan-out-Richtung pro Join (N-1/1-N)  </text><text id="my-svg-e16-text" font-size="11" x="452" y="975.5" class="taskTextOutsideRight taskTextOutside0  doneText0 width-164.2294921875">AP-37 — Start⇄Ziel-Tausch-Knopf              </text><text id="my-svg-e17-text" font-size="11" x="452" y="999.5" class="taskTextOutsideRight taskTextOutside0  doneText0 width-180.388671875">AP-38 — Kopierbares lauffähiges SQL          </text><text id="my-svg-e18-text" font-size="11" x="452" y="1023.5" class="taskTextOutsideRight taskTextOutside0  doneText0 width-229.40625">AP-39 — SQL-Analyzer vertieft (Struktur/Lints) </text><text id="my-svg-e19-text" font-size="11" x="452" y="1047.5" class="taskTextOutsideRight taskTextOutside0  doneText0 width-182.83251953125">AP-40 — Graph-Legende + Marker-Fix           </text><text id="my-svg-e20-text" font-size="11" x="452" y="1071.5" class="taskTextOutsideRight taskTextOutside0  doneText0 width-240.8125">AP-41 — Join-Typ pro Schritt (LEFT/RIGHT/FULL) </text><text id="my-svg-e21-text" font-size="11" x="452" y="1095.5" class="taskTextOutsideRight taskTextOutside0  doneText0 width-137.5693359375">AP-42 — SQL-Builder-Politur                 </text><text id="my-svg-e22-text" font-size="11" x="452" y="1119.5" class="taskTextOutsideRight taskTextOutside0  doneText0 width-210.3369140625">AP-43 — Lesbares mehrzeiliges SQL-Layout      </text><text id="my-svg-e23-text" font-size="11" x="452" y="1143.5" class="taskTextOutsideRight taskTextOutside0  doneText0 width-230.50537109375">AP-44 — SQL-Builder kompakter + NULL/Status </text><text id="my-svg-e24-text" font-size="11" x="452" y="1167.5" class="taskTextOutsideRight taskTextOutside0  doneText0 width-200.8125">AP-46 — Detailkarten folgen der Auswahl       </text><text id="my-svg-e25-text" font-size="11" x="452" y="1191.5" class="taskTextOutsideRight taskTextOutside0  doneText0 width-185.6875">AP-47 — Pfad-Indikator + Waisen-Chip         </text><text id="my-svg-e26-text" font-size="11" x="452" y="1215.5" class="taskTextOutsideRight taskTextOutside0  doneText0 width-214.08056640625">AP-48 — Analyzer-Textbox + Tippfehler-Lint   </text><text id="my-svg-e27-text" font-size="11" x="452" y="1239.5" class="taskTextOutsideRight taskTextOutside0  doneText0 width-192.720703125">AP-49 — Analyzer-Feinschliff + ANSI-Fix       </text><text id="my-svg-e28-text" font-size="11" x="452" y="1263.5" class="taskTextOutsideRight taskTextOutside0  doneText0 width-237.23193359375">AP-45 — Spaltenkopf-Aktionen + Filter-DISTINCT </text><text id="my-svg-f1-text" font-size="11" x="452" y="1287.5" class="taskTextOutsideRight taskTextOutside1  doneText1 width-222.1875">AP-31 — Multi-User (Port + Pro-Nutzer-Pfade) </text><text id="my-svg-f2-text" font-size="11" x="452" y="1311.5" class="taskTextOutsideRight taskTextOutside1  doneText1 width-170.640625">AP-34 — Tray-Icon-Launcher (Kern)            </text><text id="my-svg-f3-text" font-size="11" x="452" y="1335.5" class="taskTextOutsideRight taskTextOutside1  doneText1 width-148.7412109375">AP-31 — waitress-WSGI-Server                 </text><text id="my-svg-f4-text" font-size="11" x="452" y="1359.5" class="taskTextOutsideRight taskTextOutside1  doneText1 width-221.828125">AP-50 — Unique → 1-1-Fan-out-Klassifikation  </text><text id="my-svg-f5-text" font-size="11" x="452" y="1383.5" class="taskTextOutsideRight taskTextOutside1  doneText1 width-219.484375">AP-51 — Unique-Index als Uniqueness-Quelle   </text><text id="my-svg-f6-text" font-size="11" x="576" y="1407.5" class="taskTextOutsideRight taskTextOutside1  doneText1 width-163.328125">AP-52 — Multi-Schema-Reflection              </text><text id="my-svg-f7-text" font-size="11" x="576" y="1431.5" class="taskTextOutsideRight taskTextOutside1  doneText1 width-134.5517578125">AP-53 — Oracle-Verbindung                    </text><text id="my-svg-f8-text" font-size="11" x="576" y="1455.5" class="taskTextOutsideRight taskTextOutside1  doneText1 width-193.84375">Tier-2 — Tabellen-/Spaltenkommentare         </text><text id="my-svg-f9-text" font-size="11" x="576" y="1479.5" class="taskTextOutsideRight taskTextOutside1  doneText1 width-149.234375">Tier-3 — GROUP BY/Aggregate                  </text><text id="my-svg-f10-text" font-size="11" x="576" y="1503.5" class="taskTextOutsideRight taskTextOutside1  doneText1 width-221.72021484375">Aggregat-Operationen — HAVING + ORDER BY     </text><text id="my-svg-f11-text" font-size="11" x="576" y="1527.5" class="taskTextOutsideRight taskTextOutside1  doneText1 width-146.1875">COUNT(*) + COUNT(DISTINCT)                   </text><text id="my-svg-f12-text" font-size="11" x="576" y="1551.5" class="taskTextOutsideRight taskTextOutside1  doneText1 width-168.603515625">AP-A — Umbenennung SQL-Builder               </text><text id="my-svg-f13-text" font-size="11" x="576" y="1575.5" class="taskTextOutsideRight taskTextOutside1  doneText1 width-199.84375">AP-B — Klausel-Sektionen + Aktionsleiste     </text><text id="my-svg-f14-text" font-size="11" x="576" y="1599.5" class="taskTextOutsideRight taskTextOutside1  doneText1 width-196.8125">AP-C+D — Join-Typ inline + 1-N-Legende       </text><text id="my-svg-f15-text" font-size="11" x="509" y="1623.5" class="taskText taskText1  doneText1 width-116.203125">AP-E — Zeilen Move ↑/↓                        </text><text id="my-svg-f16-text" font-size="11" x="576" y="1647.5" class="taskTextOutsideRight taskTextOutside1  doneText1 width-205.015625">AP-F — Analyzer-Optimierungs-Vorschläge      </text><text id="my-svg-f17-text" font-size="11" x="576" y="1671.5" class="taskTextOutsideRight taskTextOutside1  doneText1 width-135.06640625">AP-58 — Fix HAVING-Layout                    </text><text id="my-svg-f18-text" font-size="11" x="576" y="1695.5" class="taskTextOutsideRight taskTextOutside1  doneText1 width-186.22607421875">AP-59 — SQL-Builder 2-Spalten-Raster        </text><text id="my-svg-f19-text" font-size="11" x="576" y="1719.5" class="taskTextOutsideRight taskTextOutside1  doneText1 width-189.626953125">AP-60 — Connection-Form-Ausrichtung         </text><text id="my-svg-f20-text" font-size="11" x="576" y="1743.5" class="taskTextOutsideRight taskTextOutside1  doneText1 width-174">AP-54 — Cross-Schema-FK-Diagnose            </text><text id="my-svg-f21-text" font-size="11" x="576" y="1767.5" class="taskTextOutsideRight taskTextOutside1  doneText1 width-148.806640625">AP-55 — Implied-FK-Schärfung                </text><text id="my-svg-f22-text" font-size="11" x="576" y="1791.5" class="taskTextOutsideRight taskTextOutside1  doneText1 width-214.76806640625">AP-56a — Subset-Footprint + Export-Skelett   </text><text id="my-svg-p3-text" font-size="11" x="576" y="2295.5" class="taskTextOutsideRight taskTextOutside3  width-158.646484375">AP-35 — run.ps1 leeres-venv-Fix             </text><text id="my-svg-f23-text" font-size="11" x="701" y="1815.5" class="taskTextOutsideRight taskTextOutside1  doneText1 width-235.58203125">AP-64 — Verbindungsform-Umbau + Connect-Fix  </text><text id="my-svg-f24-text" font-size="11" x="701" y="1839.5" class="taskTextOutsideRight taskTextOutside2  doneText2 width-181.96875">AP-56b·1 — Subset-Live-Zeilenzahlen         </text><text id="my-svg-f25-text" font-size="11" x="701" y="1863.5" class="taskTextOutsideRight taskTextOutside2  doneText2 width-192.4375">AP-56b·2 — Subset-Daten-Dump (JSON)         </text><text id="my-svg-f26-text" font-size="11" x="701" y="1887.5" class="taskTextOutsideRight taskTextOutside2  doneText2 width-128.296875">AP-56c — Subset-IN-Listen                   </text><text id="my-svg-f27-text" font-size="11" x="701" y="1911.5" class="taskTextOutsideRight taskTextOutside2  doneText2 width-193.9013671875">AP-63·S1 — Indizes + Check-Constraints      </text><text id="my-svg-f28-text" font-size="11" x="701" y="1935.5" class="taskTextOutsideRight taskTextOutside2  doneText2 width-183.84375">AP-63·S2 — Trigger-Sidebar-Kategorie        </text><text id="my-svg-f29-text" font-size="11" x="701" y="1959.5" class="taskTextOutsideRight taskTextOutside2  doneText2 width-220.6279296875">AP-63·S2b — Sequences + Materialized Views  </text><text id="my-svg-f30-text" font-size="11" x="701" y="1983.5" class="taskTextOutsideRight taskTextOutside2  doneText2 width-268.8603515625">AP-63·S3 — Procedures/Functions/Packages/Synonyms </text><text id="my-svg-f31-text" font-size="11" x="701" y="2007.5" class="taskTextOutsideRight taskTextOutside2  doneText2 width-223.7646484375">AP-63·Trigger-FF — PG/Oracle/MSSQL-Trigger  </text><text id="my-svg-f32-text" font-size="11" x="701" y="2031.5" class="taskTextOutsideRight taskTextOutside2  doneText2 width-215.671875">AP-66·S1 — View→Routinen-Abhängigkeiten     </text><text id="my-svg-f33-text" font-size="11" x="701" y="2055.5" class="taskTextOutsideRight taskTextOutside2  doneText2 width-202.015625">AP-65·A — Analyzer Parse-Fehler-Position    </text><text id="my-svg-p5-text" font-size="11" x="701" y="2319.5" class="taskTextOutsideRight taskTextOutside3  width-210.15625">AP-31 — Idle-Shutdown/Deployment (Rest)     </text><text id="my-svg-p6-text" font-size="11" x="701" y="2343.5" class="taskTextOutsideRight taskTextOutside3  width-200.078125">AP-34 — Log-Fenster/Verknüpfung (Rest)      </text><text id="my-svg-f34-text" font-size="11" x="825" y="2079.5" class="taskTextOutsideRight taskTextOutside2  doneText2 width-228.44287109375">AP-65·A-Härtung — Unclosed-Quote-Pos + Hint </text><text id="my-svg-f35-text" font-size="11" x="825" y="2103.5" class="taskTextOutsideRight taskTextOutside2  doneText2 width-288.8125">AP-67·MSSQL-Grundlage — Synonyme + Server-Demo-CMDB </text><text id="my-svg-p11-text" font-size="11" x="825" y="2367.5" class="taskTextOutsideRight taskTextOutside3  width-129.57177734375">AP-19 — .pattern_transfer                   </text><text id="my-svg-f36-text" font-size="11" x="949" y="2127.5" class="taskTextOutsideRight taskTextOutside2  doneText2 width-273.125">AP-65·A-Härtung 2 — Unclosed-Quote echte Fehlerzeile </text><text id="my-svg-f37-text" font-size="11" x="949" y="2151.5" class="taskTextOutsideRight taskTextOutside2  doneText2 width-279.125">AP-65·B — Analyzer Zeilennummern-Gutter + Fehlerzeile </text><text id="my-svg-f38-text" font-size="11" x="949" y="2175.5" class="taskTextOutsideRight taskTextOutside2  doneText2 width-196.1904296875">AP-65·C — Lints mit Zeilenbezug + Klick </text><text id="my-svg-f39-text" font-size="11" x="949" y="2199.5" class="taskTextOutsideRight taskTextOutside2  doneText2 width-222.453125">AP-67·Oracle-Adaption — Oracle-Demo-CMDB </text><text id="my-svg-f40-text" font-size="11" x="949" y="2223.5" class="taskTextOutsideRight taskTextOutside2  doneText2 width-194.921875">Fix — Passwort-Abfrage beim Verbinden </text><text id="my-svg-f41-text" font-size="11" x="949" y="2247.5" class="taskTextOutsideRight taskTextOutside2  doneText2 width-254.046875">Fix — Daten-Vorschau Oracle/MSSQL (Dialekt-LIMIT) </text><text id="my-svg-f42-text" font-size="11" x="949" y="2271.5" class="taskTextOutsideRight taskTextOutside2  doneText2 width-245.421875">AP-67 Slice 2a — reiches Oracle-Schema (~37 Tab) </text><text id="my-svg-p23-text" font-size="11" x="1321" y="2391.5" class="taskTextOutsideRight taskTextOutside0  width-187.734375">AP-57 — Cross-Schema-Joins (bedingt)        </text><text id="my-svg-p33-text" font-size="11" x="2066" y="2415.5" class="taskTextOutsideRight taskTextOutside1  width-189.421875">AP-66·S2/S3 — Views→Routinen (Rest)         </text><text id="my-svg-p41-text" font-size="11" x="2056" y="2439.5" class="taskTextOutsideLeft taskTextOutside2">AP-61 — Demo-CMDB → volle CMDB              </text><text id="my-svg-p42-text" font-size="11" x="2180" y="2463.5" class="taskTextOutsideLeft taskTextOutside2">AP-62 — Passwort-Keyring (bedingt)          </text></g><g><text dy="0em" x="10" y="122" font-size="11" class="sectionTitle sectionTitle0"><tspan alignment-baseline="central" x="10">v0.1.0 (erledigt)</tspan></text><text dy="0em" x="10" y="302" font-size="11" class="sectionTitle sectionTitle1"><tspan alignment-baseline="central" x="10">v0.2.0–v0.3.1 (erledigt)</tspan></text><text dy="0em" x="10" y="458" font-size="11" class="sectionTitle sectionTitle2"><tspan alignment-baseline="central" x="10">v0.4.0–v0.7.0 (erledigt)</tspan></text><text dy="0em" x="10" y="554" font-size="11" class="sectionTitle sectionTitle3"><tspan alignment-baseline="central" x="10">v0.8.0–v0.10.0 (erledigt)</tspan></text><text dy="0em" x="10" y="938" font-size="11" class="sectionTitle sectionTitle0"><tspan alignment-baseline="central" x="10">v0.11.x–v0.31.0 (erledigt)</tspan></text><text dy="0em" x="10" y="1550" font-size="11" class="sectionTitle sectionTitle1"><tspan alignment-baseline="central" x="10">v0.33.0–v0.48.3 (erledigt)</tspan></text><text dy="0em" x="10" y="2054" font-size="11" class="sectionTitle sectionTitle2"><tspan alignment-baseline="central" x="10">v0.49.0–v0.65.0 (erledigt)</tspan></text><text dy="0em" x="10" y="2330" font-size="11" class="sectionTitle sectionTitle3"><tspan alignment-baseline="central" x="10">Geplant (offen)</tspan></text><text dy="0em" x="10" y="2390" font-size="11" class="sectionTitle sectionTitle0"><tspan alignment-baseline="central" x="10">Legacy-DB-Migration (geplant)</tspan></text><text dy="0em" x="10" y="2414" font-size="11" class="sectionTitle sectionTitle1"><tspan alignment-baseline="central" x="10">Objekt-Kategorien (geplant)</tspan></text><text dy="0em" x="10" y="2450" font-size="11" class="sectionTitle sectionTitle2"><tspan alignment-baseline="central" x="10">Verbindung &amp; Demo (geplant)</tspan></text></g><g class="today"><line x1="868" x2="868" y1="25" y2="2499" class="today"/></g><text x="1192" y="25" class="titleText">LucentTools DB Explorer — Arbeitspaket-Roadmap</text></svg>